<svg width="16" height="16" viewBox="0 0 16 16" fill="none" xmlns="http://www.w3.org/2000/svg">
<path d="M7.71094 2L0 9.71094V8.28906L6.28906 2H7.71094ZM4.21094 2L0 6.21094V4.78906L2.78906 2H4.21094ZM9.74219 3.46094C9.41406 3.27865 9.07292 3.14844 8.71875 3.07031L9.78906 2H11.2109L9.74219 3.46094ZM11.3203 5.39062C11.2109 5.04688 11.0495 4.73438 10.8359 4.45312L13.2969 2H14.5C14.5312 2 14.5625 2.0026 14.5938 2.00781C14.6302 2.00781 14.6641 2.01042 14.6953 2.01562L11.3203 5.39062ZM11.125 9.07812C10.9167 9.02604 10.6927 9 10.4531 9C10.6771 8.78125 10.8646 8.53906 11.0156 8.27344C11.1719 8.0026 11.2943 7.71615 11.3828 7.41406L15.8828 2.91406C15.9609 3.10156 16 3.29688 16 3.5V4.21094L11.125 9.07812ZM5.5 6.5C5.5 6.15625 5.5651 5.83333 5.69531 5.53125C5.82552 5.22917 6.0026 4.96615 6.22656 4.74219C6.45573 4.51302 6.72135 4.33333 7.02344 4.20312C7.33073 4.06771 7.65625 4 8 4C8.35938 4 8.6901 4.06771 8.99219 4.20312C9.29948 4.33854 9.5625 4.52083 9.78125 4.75C10.0052 4.97917 10.1797 5.25 10.3047 5.5625C10.4349 5.875 10.5 6.20573 10.5 6.55469C10.5 6.88281 10.4323 7.19531 10.2969 7.49219C10.1667 7.78906 9.98958 8.04948 9.76562 8.27344C9.54688 8.49219 9.28906 8.66927 8.99219 8.80469C8.69531 8.9349 8.38281 9 8.05469 9C7.70052 9 7.36719 8.9375 7.05469 8.8125C6.7474 8.68229 6.47917 8.50521 6.25 8.28125C6.02083 8.05729 5.83854 7.79427 5.70312 7.49219C5.56771 7.1849 5.5 6.85417 5.5 6.5ZM9.5 6.5C9.5 6.29688 9.46094 6.10417 9.38281 5.92188C9.30469 5.73958 9.19531 5.58073 9.05469 5.44531C8.91927 5.30469 8.76042 5.19531 8.57812 5.11719C8.39583 5.03906 8.20312 5 8 5C7.79688 5 7.60417 5.03906 7.42188 5.11719C7.23958 5.19531 7.07812 5.30469 6.9375 5.44531C6.80208 5.58073 6.69531 5.73958 6.61719 5.92188C6.53906 6.10417 6.5 6.29688 6.5 6.5C6.5 6.70312 6.53906 6.89583 6.61719 7.07812C6.69531 7.26042 6.80208 7.42188 6.9375 7.5625C7.07812 7.69792 7.23958 7.80469 7.42188 7.88281C7.60417 7.96094 7.79688 8 8 8C8.20312 8 8.39583 7.96094 8.57812 7.88281C8.76042 7.80469 8.91927 7.69792 9.05469 7.5625C9.19531 7.42188 9.30469 7.26042 9.38281 7.07812C9.46094 6.89583 9.5 6.70312 9.5 6.5ZM12.8984 10.8047C12.8047 10.4609 12.6406 10.1536 12.4062 9.88281L16 6.28906V7.71094L12.8984 10.8047ZM0.117188 13.0859C0.0390625 12.8984 0 12.7031 0 12.5V11.7891L4.57031 7.21875C4.64844 7.57292 4.77865 7.91406 4.96094 8.24219L0.117188 13.0859ZM13.2109 14H13V12.7969L16 9.78906V11.2109L13.2109 14ZM4 11.5C4 11.2917 4.03906 11.0964 4.11719 10.9141C4.19531 10.7318 4.30208 10.5729 4.4375 10.4375C4.57292 10.3021 4.73177 10.1953 4.91406 10.1172C5.09635 10.0391 5.29167 10 5.5 10H10.5C10.7083 10 10.9036 10.0391 11.0859 10.1172C11.2682 10.1953 11.4271 10.3021 11.5625 10.4375C11.6979 10.5729 11.8047 10.7318 11.8828 10.9141C11.9609 11.0964 12 11.2917 12 11.5V14H11V11.5C11 11.3646 10.9505 11.2474 10.8516 11.1484C10.7526 11.0495 10.6354 11 10.5 11H5.5C5.36458 11 5.2474 11.0495 5.14844 11.1484C5.04948 11.2474 5 11.3646 5 11.5V14H4V11.5ZM1.5 14C1.46875 14 1.4349 14 1.39844 14C1.36719 13.9948 1.33594 13.9896 1.30469 13.9844L3 12.2891V14H1.5Z" fill="black" fill-opacity="0.8956"/>
<path d="M5.5 6.5C5.5 6.15625 5.5651 5.83333 5.69531 5.53125C5.82552 5.22917 6.0026 4.96615 6.22656 4.74219C6.45573 4.51302 6.72135 4.33333 7.02344 4.20312C7.33073 4.06771 7.65625 4 8 4C8.35938 4 8.6901 4.06771 8.99219 4.20312C9.29948 4.33854 9.5625 4.52083 9.78125 4.75C10.0052 4.97917 10.1797 5.25 10.3047 5.5625C10.4349 5.875 10.5 6.20573 10.5 6.55469C10.5 6.88281 10.4323 7.19531 10.2969 7.49219C10.1667 7.78906 9.98958 8.04948 9.76562 8.27344C9.54688 8.49219 9.28906 8.66927 8.99219 8.80469C8.69531 8.9349 8.38281 9 8.05469 9C7.70052 9 7.36719 8.9375 7.05469 8.8125C6.7474 8.68229 6.47917 8.50521 6.25 8.28125C6.02083 8.05729 5.83854 7.79427 5.70312 7.49219C5.56771 7.1849 5.5 6.85417 5.5 6.5ZM9.5 6.5C9.5 6.29688 9.46094 6.10417 9.38281 5.92188C9.30469 5.73958 9.19531 5.58073 9.05469 5.44531C8.91927 5.30469 8.76042 5.19531 8.57812 5.11719C8.39583 5.03906 8.20312 5 8 5C7.79688 5 7.60417 5.03906 7.42188 5.11719C7.23958 5.19531 7.07812 5.30469 6.9375 5.44531C6.80208 5.58073 6.69531 5.73958 6.61719 5.92188C6.53906 6.10417 6.5 6.29688 6.5 6.5C6.5 6.70312 6.53906 6.89583 6.61719 7.07812C6.69531 7.26042 6.80208 7.42188 6.9375 7.5625C7.07812 7.69792 7.23958 7.80469 7.42188 7.88281C7.60417 7.96094 7.79688 8 8 8C8.20312 8 8.39583 7.96094 8.57812 7.88281C8.76042 7.80469 8.91927 7.69792 9.05469 7.5625C9.19531 7.42188 9.30469 7.26042 9.38281 7.07812C9.46094 6.89583 9.5 6.70312 9.5 6.5ZM4 11.5C4 11.2917 4.03906 11.0964 4.11719 10.9141C4.19531 10.7318 4.30208 10.5729 4.4375 10.4375C4.57292 10.3021 4.73177 10.1953 4.91406 10.1172C5.09635 10.0391 5.29167 10 5.5 10H10.5C10.7083 10 10.9036 10.0391 11.0859 10.1172C11.2682 10.1953 11.4271 10.3021 11.5625 10.4375C11.6979 10.5729 11.8047 10.7318 11.8828 10.9141C11.9609 11.0964 12 11.2917 12 11.5V14H11V11.5C11 11.3646 10.9505 11.2474 10.8516 11.1484C10.7526 11.0495 10.6354 11 10.5 11H5.5C5.36458 11 5.2474 11.0495 5.14844 11.1484C5.04948 11.2474 5 11.3646 5 11.5V14H4V11.5Z" fill="#005FB8"/>
</svg>
