<svg width="16" height="16" viewBox="0 0 16 16" fill="none" xmlns="http://www.w3.org/2000/svg">
<path d="M13.7136 1.90467V5.53907C13.6354 5.45418 13.5481 5.37718 13.4529 5.30957C13.2997 5.20046 13.1302 5.11862 12.9518 5.06645V1.90467C12.9518 1.27352 12.4401 0.761869 11.809 0.761869L1.90467 0.76187C1.27352 0.76187 0.761869 1.27352 0.761869 1.90467L0.76187 11.809C0.76187 12.4401 1.27352 12.9518 1.90467 12.9518H6.73032C6.51938 13.0294 6.33676 13.1691 6.20653 13.3524C6.12828 13.4623 6.0711 13.5848 6.03698 13.7136H1.90467C0.852752 13.7136 9.57824e-07 12.8609 8.65862e-07 11.809L0 1.90467C-9.1962e-08 0.852752 0.852751 9.57823e-07 1.90467 8.65861e-07L11.809 0C12.8609 -9.1962e-08 13.7136 0.852751 13.7136 1.90467Z" fill="black" fill-opacity="0.8956"/>
<path d="M2.99999 9.49923C2.99999 9.22309 3.22385 8.99923 3.49999 8.99923H6.49999C6.77614 8.99923 6.99999 9.22309 6.99999 9.49923C6.99999 9.77537 6.77614 9.99923 6.49999 9.99923L3.49999 9.99923C3.22385 9.99923 3 9.77537 2.99999 9.49923Z" fill="black" fill-opacity="0.8956"/>
<path d="M3.49999 5.99923C3.22385 5.99923 2.99999 6.22309 2.99999 6.49923C2.99999 6.77537 3.22385 6.99923 3.49999 6.99923H8.49999C8.77614 6.99923 8.99999 6.77537 8.99999 6.49923C8.99999 6.22309 8.77614 5.99923 8.49999 5.99923H3.49999Z" fill="black" fill-opacity="0.8956"/>
<path d="M3.49999 2.99923C3.22385 2.99923 2.99999 3.22309 2.99999 3.49923C2.99999 3.77537 3.22385 3.99923 3.49999 3.99923L10.5 3.99923C10.7761 3.99923 11 3.77537 11 3.49923C11 3.22309 10.7761 2.99923 10.5 2.99923L3.49999 2.99923Z" fill="black" fill-opacity="0.8956"/>
<path d="M13.4732 10.9315C13.5324 10.8597 13.5964 10.7912 13.665 10.7265C13.9204 10.4856 14.2322 10.3041 14.5756 10.1966L15.7029 9.8524C15.7897 9.82361 15.865 9.7702 15.9182 9.69955C15.9714 9.62889 16 9.54447 16 9.45792C16 9.37136 15.9714 9.28694 15.9182 9.21628C15.865 9.14563 15.7897 9.09222 15.7029 9.06343L14.5756 8.71924C14.237 8.60942 13.9301 8.42753 13.6788 8.18777C13.4344 7.95459 13.2491 7.67283 13.1364 7.36343L13.127 7.3372L12.7606 6.27817C12.73 6.19655 12.6731 6.12587 12.5979 6.07587C12.5227 6.02587 12.4329 5.99902 12.3407 5.99902C12.2486 5.99902 12.1587 6.02587 12.0835 6.07587C12.0083 6.12587 11.9515 6.19655 11.9208 6.27817L11.5544 7.3372C11.4405 7.65917 11.2482 7.95174 10.9929 8.19165C10.7375 8.43156 10.4261 8.61221 10.0833 8.71924L8.95605 9.06343L8.9335 9.06872C8.84662 9.09752 8.77138 9.15092 8.71816 9.22158C8.66494 9.29223 8.63636 9.37665 8.63636 9.46321C8.63636 9.54976 8.66494 9.63419 8.71816 9.70484C8.77138 9.7755 8.84662 9.8289 8.9335 9.8577L10.0608 10.2019C10.4035 10.3089 10.7149 10.4896 10.9703 10.7295C11.2257 10.9694 11.418 11.262 11.5319 11.5839L11.8983 12.643C11.9016 12.6518 11.9052 12.6604 11.9091 12.669C11.9414 12.7396 11.9939 12.8007 12.061 12.8453C12.1362 12.8953 12.226 12.9221 12.3182 12.9221C12.4103 12.9221 12.5002 12.8953 12.5754 12.8453C12.6506 12.7953 12.7074 12.7246 12.7381 12.643L13.1045 11.5839C13.1872 11.3477 13.3122 11.1272 13.4732 10.9315ZM7.1776 13.8553L7.80387 13.6641C7.99427 13.6046 8.16728 13.5043 8.30916 13.371C8.45103 13.2377 8.55786 13.0752 8.62116 12.8963L8.82469 12.308C8.84172 12.2626 8.87331 12.2233 8.91509 12.1956C8.95687 12.1678 9.00679 12.1529 9.05798 12.1529C9.10917 12.1529 9.15909 12.1678 9.20087 12.1956C9.24266 12.2233 9.27424 12.2626 9.29127 12.308L9.4948 12.8963C9.55683 13.0739 9.66175 13.2356 9.80136 13.3688C9.94097 13.502 10.1115 13.6031 10.2996 13.6641L10.9258 13.8553C10.9741 13.8713 11.0159 13.901 11.0455 13.9402C11.075 13.9795 11.0909 14.0264 11.0909 14.0745C11.0909 14.1226 11.075 14.1695 11.0455 14.2087C11.0159 14.248 10.9741 14.2776 10.9258 14.2936L10.2996 14.4848C10.1088 14.5446 9.9356 14.6454 9.7937 14.7792C9.6518 14.9131 9.54515 15.0762 9.48228 15.2556L9.27874 15.8439C9.26171 15.8893 9.23013 15.9286 9.18835 15.9563C9.14656 15.9841 9.09664 15.999 9.04545 15.999C8.99427 15.999 8.94434 15.9841 8.90256 15.9563C8.86078 15.9286 8.8292 15.8893 8.81217 15.8439L8.60863 15.2556C8.54534 15.0767 8.43851 14.9142 8.29663 14.7809C8.15476 14.6476 7.98175 14.5473 7.79135 14.4878L7.16508 14.2966C7.11681 14.2806 7.07501 14.2509 7.04544 14.2117C7.01588 14.1724 7 14.1255 7 14.0774C7 14.0293 7.01588 13.9824 7.04544 13.9432C7.07501 13.9039 7.11681 13.8743 7.16508 13.8583L7.1776 13.8553Z" fill="#005FB8"/>
</svg>
