<svg width="16" height="16" viewBox="0 0 16 16" fill="none" xmlns="http://www.w3.org/2000/svg">
<path d="M4.77398 1.35305L5.12226 0.282251C5.15139 0.19972 5.20543 0.128252 5.27693 0.0776997C5.34842 0.0271473 5.43385 0 5.52143 0C5.60902 0 5.69444 0.0271473 5.76594 0.0776997C5.83743 0.128252 5.89147 0.19972 5.92061 0.282251L6.26889 1.35305C6.37503 1.67631 6.55456 1.97065 6.79344 2.21307C7.03232 2.45549 7.32409 2.63941 7.64592 2.75044L8.71753 3.09845C8.80013 3.12757 8.87165 3.18157 8.92224 3.25301C8.97283 3.32445 9 3.40981 9 3.49733C9 3.58484 8.97283 3.6702 8.92224 3.74164C8.87165 3.81308 8.80013 3.86708 8.71753 3.8962L7.64592 4.24421C7.37081 4.33588 7.11698 4.48064 6.89861 4.66973C6.85792 4.70496 6.81846 4.74173 6.78032 4.77999C6.57977 4.98116 6.42037 5.21872 6.31034 5.47932C6.28716 5.53422 6.26617 5.59014 6.24745 5.64696L5.89918 6.71775C5.87291 6.79215 5.82641 6.85755 5.76514 6.90675C5.75843 6.91213 5.75156 6.91732 5.7445 6.92231C5.67301 6.97286 5.58758 7.00001 5.5 7.00001C5.41242 7.00001 5.32699 6.97286 5.2555 6.92231C5.184 6.87175 5.12996 6.80029 5.10082 6.71775L4.75255 5.64696C4.64425 5.32141 4.46145 5.0256 4.21869 4.78302C3.97592 4.54044 3.67988 4.35778 3.35409 4.24956L2.28247 3.90155C2.19987 3.87244 2.12835 3.81844 2.07776 3.747C2.02717 3.67556 2 3.5902 2 3.50268C2 3.41516 2.02717 3.3298 2.07776 3.25836C2.12835 3.18692 2.19987 3.13292 2.28247 3.10381L2.3039 3.09845L3.37552 2.75044C3.70131 2.64223 3.99735 2.45957 4.24012 2.21699C4.48288 1.97441 4.66568 1.67859 4.77398 1.35305Z" fill="black" fill-opacity="0.8956"/>
<path d="M8.94299 2.10797L9.90468 1.14628C10.0999 0.951048 10.4164 0.951049 10.6117 1.14628L14.8537 5.38832C15.049 5.58355 15.049 5.90009 14.8537 6.09532L8.48895 12.4601L5.14351 9.11465C5.08189 9.14844 5.01722 9.17712 4.95011 9.20021L4.94253 9.20282L4.20529 9.44282C4.16981 9.45465 4.13576 9.47008 4.10364 9.48879L7.78194 13.1671L6.09532 14.8537C5.90009 15.049 5.58355 15.049 5.38832 14.8537L1.14628 10.6117C0.975025 10.4404 0.953993 10.1758 1.08319 9.98164L1.02021 9.78812C1.00084 9.72941 0.971613 9.67446 0.933797 9.62561L0.932298 9.62367C0.919022 9.60643 0.904126 9.58954 0.888745 9.57415C0.828288 9.51356 0.754705 9.46781 0.673756 9.4404L0.324222 9.32661C-0.143519 9.91535 -0.105168 10.7742 0.439277 11.3187L4.68131 15.5607C4.99427 15.8737 5.41114 16.0194 5.82087 15.9979H12.5003C12.7764 15.9979 13.0002 15.7741 13.0002 15.498C13.0002 15.2219 12.7764 14.9981 12.5003 14.9981H7.36498L15.5607 6.80233C16.1464 6.21663 16.1464 5.26701 15.5607 4.68131L11.3187 0.439277C10.733 -0.146426 9.78337 -0.146425 9.19767 0.439277L7.90454 1.73241L8.42106 1.90055H8.45573L8.65292 1.97055C8.75455 2.00662 8.85168 2.05276 8.94299 2.10797Z" fill="black" fill-opacity="0.8956"/>
<path d="M0.217072 7.71318L0.982513 7.4646C1.21522 7.38731 1.42668 7.25684 1.60008 7.08357C1.77349 6.91029 1.90406 6.699 1.98141 6.46646L2.23018 5.70161C2.25099 5.64266 2.2896 5.59161 2.34066 5.5555C2.39173 5.51939 2.45275 5.5 2.51531 5.5C2.57787 5.5 2.63889 5.51939 2.68996 5.5555C2.74102 5.59161 2.77962 5.64266 2.80044 5.70161L3.0492 6.46646C3.12502 6.69736 3.25325 6.90761 3.42389 7.08076C3.59452 7.25392 3.80292 7.38529 4.0328 7.4646L4.79824 7.71318C4.85723 7.73398 4.90832 7.77255 4.94446 7.82358C4.98059 7.87461 5 7.93558 5 7.99809C5 8.0606 4.98059 8.12158 4.94446 8.1726C4.90832 8.22363 4.85723 8.2622 4.79824 8.283L4.0328 8.53158C3.79968 8.60926 3.58795 8.74031 3.41452 8.91428C3.24109 9.08824 3.11074 9.3003 3.0339 9.53354L2.78513 10.2984C2.76431 10.3573 2.72571 10.4084 2.67465 10.4445C2.62358 10.4806 2.56256 10.5 2.5 10.5C2.43744 10.5 2.37642 10.4806 2.32535 10.4445C2.27429 10.4084 2.23569 10.3573 2.21487 10.2984L1.9661 9.53354C1.88875 9.30101 1.75818 9.08971 1.58478 8.91644C1.41137 8.74317 1.19991 8.6127 0.967204 8.5354L0.201763 8.28682C0.142767 8.26603 0.0916796 8.22746 0.0555429 8.17643C0.0194063 8.1254 0 8.06443 0 8.00191C0 7.9394 0.0194063 7.87843 0.0555429 7.8274C0.0916796 7.77637 0.142767 7.7378 0.201763 7.71701L0.217072 7.71318Z" fill="black" fill-opacity="0.8956"/>
<path d="M4.77398 1.35305L5.12226 0.282251C5.15139 0.19972 5.20543 0.128252 5.27693 0.0776997C5.34842 0.0271473 5.43385 0 5.52143 0C5.60902 0 5.69444 0.0271473 5.76594 0.0776997C5.83743 0.128252 5.89147 0.19972 5.92061 0.282251L6.26889 1.35305C6.37503 1.67631 6.55456 1.97065 6.79344 2.21307C7.03232 2.45549 7.32409 2.63941 7.64592 2.75044L8.71753 3.09845C8.80013 3.12757 8.87165 3.18157 8.92224 3.25301C8.97283 3.32445 9 3.40981 9 3.49733C9 3.58484 8.97283 3.6702 8.92224 3.74164C8.87165 3.81308 8.80013 3.86708 8.71753 3.8962L7.64592 4.24421C7.37081 4.33588 7.11698 4.48064 6.89861 4.66973C6.85792 4.70496 6.81846 4.74173 6.78032 4.77999C6.57977 4.98116 6.42037 5.21872 6.31034 5.47932C6.28716 5.53422 6.26617 5.59014 6.24745 5.64696L5.89918 6.71775C5.87291 6.79215 5.82641 6.85755 5.76514 6.90675C5.75843 6.91213 5.75156 6.91732 5.7445 6.92231C5.67301 6.97286 5.58758 7.00001 5.5 7.00001C5.41242 7.00001 5.32699 6.97286 5.2555 6.92231C5.184 6.87175 5.12996 6.80029 5.10082 6.71775L4.75255 5.64696C4.64425 5.32141 4.46145 5.0256 4.21869 4.78302C3.97592 4.54044 3.67988 4.35778 3.35409 4.24956L2.28247 3.90155C2.19987 3.87244 2.12835 3.81844 2.07776 3.747C2.02717 3.67556 2 3.5902 2 3.50268C2 3.41516 2.02717 3.3298 2.07776 3.25836C2.12835 3.18692 2.19987 3.13292 2.28247 3.10381L2.3039 3.09845L3.37552 2.75044C3.70131 2.64223 3.99735 2.45957 4.24012 2.21699C4.48288 1.97441 4.66568 1.67859 4.77398 1.35305Z" fill="#005FB8"/>
<path d="M0.217072 7.71318L0.982513 7.4646C1.21522 7.38731 1.42668 7.25684 1.60008 7.08357C1.77349 6.91029 1.90406 6.699 1.98141 6.46646L2.23018 5.70161C2.25099 5.64266 2.2896 5.59161 2.34066 5.5555C2.39173 5.51939 2.45275 5.5 2.51531 5.5C2.57787 5.5 2.63889 5.51939 2.68996 5.5555C2.74102 5.59161 2.77962 5.64266 2.80044 5.70161L3.0492 6.46646C3.12502 6.69736 3.25325 6.90761 3.42389 7.08076C3.59452 7.25392 3.80292 7.38529 4.0328 7.4646L4.79824 7.71318C4.85723 7.73398 4.90832 7.77255 4.94446 7.82358C4.98059 7.87461 5 7.93558 5 7.99809C5 8.0606 4.98059 8.12158 4.94446 8.1726C4.90832 8.22363 4.85723 8.2622 4.79824 8.283L4.0328 8.53158C3.79968 8.60926 3.58795 8.74031 3.41452 8.91428C3.24109 9.08824 3.11074 9.3003 3.0339 9.53354L2.78513 10.2984C2.76431 10.3573 2.72571 10.4084 2.67465 10.4445C2.62358 10.4806 2.56256 10.5 2.5 10.5C2.43744 10.5 2.37642 10.4806 2.32535 10.4445C2.27429 10.4084 2.23569 10.3573 2.21487 10.2984L1.9661 9.53354C1.88875 9.30101 1.75818 9.08971 1.58478 8.91644C1.41137 8.74317 1.19991 8.6127 0.967204 8.5354L0.201763 8.28682C0.142767 8.26603 0.0916796 8.22746 0.0555429 8.17643C0.0194063 8.1254 0 8.06443 0 8.00191C0 7.9394 0.0194063 7.87843 0.0555429 7.8274C0.0916796 7.77637 0.142767 7.7378 0.201763 7.71701L0.217072 7.71318Z" fill="#005FB8"/>
</svg>
