<svg width="16" height="16" viewBox="0 0 16 16" fill="none" xmlns="http://www.w3.org/2000/svg">
<path d="M0.5 8.5C0.364583 8.5 0.247396 8.45052 0.148438 8.35156C0.0494792 8.2526 0 8.13542 0 8C0 7.26562 0.09375 6.55729 0.28125 5.875C0.473958 5.19271 0.744792 4.55469 1.09375 3.96094C1.44271 3.36719 1.85938 2.82812 2.34375 2.34375C2.83333 1.85417 3.375 1.4375 3.96875 1.09375C4.5625 0.744792 5.20052 0.476562 5.88281 0.289062C6.5651 0.0963542 7.27344 0 8.00781 0C8.57552 0 9.13542 0.0625 9.6875 0.1875C10.2448 0.307292 10.7812 0.481771 11.2969 0.710938C11.8125 0.940104 12.2969 1.22396 12.75 1.5625C13.2083 1.90104 13.625 2.28385 14 2.71094V0.5C14 0.364583 14.0495 0.247396 14.1484 0.148438C14.2474 0.0494792 14.3646 0 14.5 0C14.6354 0 14.7526 0.0494792 14.8516 0.148438C14.9505 0.247396 15 0.364583 15 0.5C15 1.13021 15 1.75781 15 2.38281C15.0052 3.00781 15.0078 3.63542 15.0078 4.26562C15.0078 4.35417 15.0026 4.44271 14.9922 4.53125C14.9818 4.61458 14.9583 4.69271 14.9219 4.76562C14.8854 4.83333 14.8333 4.89062 14.7656 4.9375C14.6979 4.97917 14.6094 5 14.5 5H10.5C10.3646 5 10.2474 4.95052 10.1484 4.85156C10.0495 4.7526 10 4.63542 10 4.5C10 4.36458 10.0495 4.2474 10.1484 4.14844C10.2474 4.04948 10.3646 4 10.5 4H13.7422C13.4141 3.53125 13.0365 3.11198 12.6094 2.74219C12.1875 2.36719 11.7292 2.05208 11.2344 1.79688C10.7448 1.53646 10.2266 1.33854 9.67969 1.20312C9.13281 1.06771 8.57292 1 8 1C7.45833 1 6.92448 1.0625 6.39844 1.1875C5.8776 1.30729 5.38021 1.48438 4.90625 1.71875C4.43229 1.95312 3.98698 2.23958 3.57031 2.57812C3.15365 2.91667 2.78125 3.30208 2.45312 3.73438C1.98438 4.34896 1.625 5.02083 1.375 5.75C1.125 6.47396 1 7.22396 1 8C1 8.13542 0.950521 8.2526 0.851562 8.35156C0.752604 8.45052 0.635417 8.5 0.5 8.5ZM16 8C16 8.73438 15.9036 9.44271 15.7109 10.125C15.5234 10.8021 15.2552 11.4375 14.9062 12.0312C14.5573 12.625 14.1406 13.1667 13.6562 13.6562C13.1719 14.1406 12.6328 14.5573 12.0391 14.9062C11.4453 15.2552 10.8073 15.526 10.125 15.7188C9.44792 15.9062 8.74219 16 8.00781 16C7.4349 16 6.86979 15.9401 6.3125 15.8203C5.76042 15.7005 5.22656 15.526 4.71094 15.2969C4.19531 15.0625 3.70833 14.7786 3.25 14.4453C2.79167 14.1068 2.375 13.7214 2 13.2891V15.5C2 15.6354 1.95052 15.7526 1.85156 15.8516C1.7526 15.9505 1.63542 16 1.5 16C1.36458 16 1.2474 15.9505 1.14844 15.8516C1.04948 15.7526 1 15.6354 1 15.5C1 14.8698 0.997396 14.2422 0.992188 13.6172C0.992188 12.9922 0.992188 12.3646 0.992188 11.7344C0.992188 11.651 0.997396 11.5651 1.00781 11.4766C1.01823 11.388 1.04167 11.3099 1.07812 11.2422C1.11458 11.1693 1.16667 11.112 1.23438 11.0703C1.30208 11.0234 1.39062 11 1.5 11H5.5C5.63542 11 5.7526 11.0495 5.85156 11.1484C5.95052 11.2474 6 11.3646 6 11.5C6 11.6354 5.95052 11.7526 5.85156 11.8516C5.7526 11.9505 5.63542 12 5.5 12H2.25781C2.58594 12.474 2.96094 12.8958 3.38281 13.2656C3.8099 13.6354 4.27083 13.9505 4.76562 14.2109C5.26042 14.4661 5.78125 14.6615 6.32812 14.7969C6.875 14.9323 7.4349 15 8.00781 15C8.54948 15 9.08073 14.9401 9.60156 14.8203C10.1224 14.6953 10.6198 14.5156 11.0938 14.2812C11.5677 14.0469 12.013 13.7604 12.4297 13.4219C12.8464 13.0833 13.2188 12.6979 13.5469 12.2656C14.0156 11.651 14.375 10.9818 14.625 10.2578C14.875 9.52865 15 8.77604 15 8C15 7.86458 15.0495 7.7474 15.1484 7.64844C15.2474 7.54948 15.3646 7.5 15.5 7.5C15.6354 7.5 15.7526 7.54948 15.8516 7.64844C15.9505 7.7474 16 7.86458 16 8Z" fill="black" fill-opacity="0.8956"/>
</svg>
